# xmcd
# 
# Track frame offsets:
#     150
#     30087
#     53352
#     89250
#     131500
# 
# Disc length: 2360
# 
# Revision: 2
# Processed by: cddbd v1.5.2PL0 Copyright (c) Steve Scherf et al.
# Submitted via: BonkEnc v1.0.8
# 
DISCID=2b093605
DTITLE=Yusef Lateef - Autophysiopsychic
DYEAR=1977
DGENRE=Fusion
TTITLE0=Robot Man
TTITLE1=Look On The Right Side
TTITLE2=YL (pronounced Eel)
TTITLE3=Communication
TTITLE4=Sister Mamie
EXTD=YEAR: 1977
EXTT0=
EXTT1=
EXTT2=
EXTT3=
EXTT4=
PLAYORDER=
